# xmcd
#
# Track frame offsets:
#	150
#	12479
#	30483
#	42287
#	57899
#	74131
#	89420
#	101324
#	110782
#	123267
#	134388
#	146970
#	159459
#
# Disc length: 2299 seconds
#
# Revision: 1
# Processed by: cddbd v1.5.2PL0 Copyright (c) Steve Scherf et al.
# Submitted via: EasyCDDAExtractor 10.0.1.1
#
DISCID=bb08f90d
DTITLE=George Canyon - Classics
DYEAR=2007
DGENRE=Country
TTITLE0=Ring Of Fire
TTITLE1=Seven Spanish Angels
TTITLE2=Good Ol' Boys (Theme from 'The Dukes Of Hazzard'
TTITLE3=Luckenbach, Texas (Back To The Basics Of Love)
TTITLE4=Good Hearted Woman
TTITLE5=He Stopped Loving Her Today
TTITLE6=My Best Friend
TTITLE7=Kiss An Angel Good Morning
TTITLE8=Okie From Muskogee
TTITLE9=Hello Darlin'
TTITLE10=Release Me
TTITLE11=Folsom Prison Blues
TTITLE12=The Battle Of New Orleans
EXTD=
EXTT0=
EXTT1=
EXTT2=
EXTT3=
EXTT4=
EXTT5=
EXTT6=
EXTT7=
EXTT8=
EXTT9=
EXTT10=
EXTT11=
EXTT12=
PLAYORDER=
